<svg width="228" height="128" viewBox="0 0 228 128" fill="none" xmlns="http://www.w3.org/2000/svg">
<path d="M87.6445 18.5673L41.9536 0.934067C21.6117 -1.29991 5.65328 0.752665 0.104368 4.13966C0.104368 4.15954 0.101883 4.17942 0.0993984 4.19682L0 4.13221L0.0472142 96.2472L30.8458 125.624L34.8143 125.048L34.7621 24.0591L4.99725 5.69028L38.087 3.49855L81.283 21.7183L81.3327 117.422L85.0801 119.506L87.6967 118.965L87.6495 18.5649L87.6445 18.5673Z" fill="white"/>
<path d="M50.8745 55.3946V116.512L59.2613 120.814L51.5852 55.3673C51.5479 54.9772 50.8745 54.9995 50.8745 55.3922V55.3946Z" fill="white"/>
<path d="M31.5591 9.41756L58.8092 25.1026L65.8292 82.6965C65.8665 83.0867 66.5399 83.0643 66.5399 82.6717V24.3248L31.6635 9.20386C31.5019 9.15167 31.4025 9.35295 31.5591 9.41756Z" fill="white"/>
<path d="M111.311 29.8691L120.936 56.9154H121.047V29.8691H128.348V69.3601H119.278L109.544 41.705H109.433V69.3601H102.132V29.8691H111.314H111.311Z" fill="white"/>
<path d="M147.994 51.1083C147.957 49.9652 147.883 48.9687 147.773 48.1213C147.661 47.2367 147.46 46.4987 147.164 45.9097C146.906 45.2835 146.518 44.8213 146.004 44.5281C145.524 44.1951 144.898 44.0311 144.123 44.0311C143.347 44.0311 142.704 44.215 142.187 44.5852C141.707 44.9182 141.32 45.3779 141.027 45.9694C140.731 46.5235 140.51 47.1497 140.363 47.8505C140.251 48.5512 140.197 49.252 140.197 49.9528V51.1132H147.994V51.1083ZM140.197 55.6433V58.0214C140.197 58.9061 140.251 59.7733 140.363 60.6207C140.51 61.4308 140.731 62.1688 141.027 62.8323C141.322 63.4585 141.707 63.9754 142.187 64.3804C142.667 64.7482 143.256 64.9346 143.956 64.9346C145.246 64.9346 146.188 64.4749 146.777 63.5529C147.366 62.631 147.773 61.2295 147.994 59.3484H154.853C154.706 62.8149 153.784 65.4515 152.087 67.258C150.39 69.0646 147.719 69.9691 144.066 69.9691C141.3 69.9691 139.143 69.5094 137.595 68.5875C136.047 67.6656 134.904 66.4479 134.166 64.9371C133.427 63.4262 132.968 61.729 132.784 59.8479C132.637 57.9668 132.563 56.0856 132.563 54.207C132.563 52.2166 132.692 50.2982 132.95 48.4543C133.246 46.6105 133.798 44.9704 134.61 43.5316C135.458 42.0928 136.658 40.9498 138.206 40.1024C139.754 39.255 141.819 38.8301 144.401 38.8301C146.613 38.8301 148.419 39.1979 149.821 39.9359C151.26 40.6366 152.383 41.6505 153.195 42.9775C154.005 44.2672 154.56 45.8526 154.855 47.7337C155.151 49.5775 155.298 51.6425 155.298 53.9287V55.6433H140.199H140.197Z" fill="white"/>
<path d="M159.271 39.6078H166.572V43.5912H166.684C167.459 42.1524 168.398 41.0093 169.504 40.1619C170.61 39.2773 171.957 38.835 173.542 38.835C173.763 38.835 173.984 38.8524 174.206 38.8896C174.464 38.8896 174.703 38.907 174.924 38.9443V46.2451C174.519 46.2078 174.111 46.1904 173.706 46.1904C173.338 46.1532 172.951 46.1358 172.546 46.1358C171.882 46.1358 171.219 46.2277 170.555 46.4116C169.892 46.5955 169.283 46.9086 168.729 47.3509C168.175 47.756 167.732 48.3101 167.402 49.0109C167.071 49.6744 166.905 50.5043 166.905 51.5008V69.3652H159.271V39.6078Z" fill="white"/>
<path d="M184.715 55.4222C184.715 56.4534 184.752 57.4325 184.826 58.3544C184.936 59.2763 185.122 60.1063 185.381 60.8443C185.676 61.5451 186.064 62.1166 186.541 62.559C187.058 62.964 187.721 63.1678 188.532 63.1678C189.342 63.1678 190.005 62.964 190.522 62.559C191.076 62.1166 191.499 61.5277 191.794 60.7897C192.127 60.0516 192.348 59.167 192.458 58.1357C192.604 57.0672 192.679 55.9042 192.679 54.6518C192.679 51.0387 192.383 48.4767 191.794 46.9634C191.24 45.4525 190.209 44.6946 188.698 44.6946C187.851 44.6946 187.167 44.8785 186.65 45.2487C186.134 45.6165 185.728 46.2253 185.433 47.0752C185.137 47.8853 184.936 48.9936 184.824 50.3926C184.749 51.7568 184.712 53.4342 184.712 55.4246L184.715 55.4222ZM199.98 39.6029V67.8668C199.98 71.7011 199.021 74.5787 197.105 76.4946C195.224 78.413 192.053 79.3697 187.592 79.3697C184.347 79.3697 181.84 78.669 180.07 77.2674C178.338 75.9032 177.471 73.95 177.471 71.4054H184.772C184.772 72.3646 185.159 73.12 185.932 73.6742C186.3 73.9326 186.688 74.1339 187.093 74.283C187.535 74.4296 187.997 74.5042 188.474 74.5042C190.022 74.5042 191.111 74.0072 191.737 73.0107C192.363 72.0142 192.676 70.7792 192.676 69.3056V65.3794H192.567C191.792 66.4852 190.835 67.3698 189.692 68.0333C188.586 68.6968 187.423 69.0298 186.208 69.0298C183.184 69.0298 180.898 67.8867 179.35 65.6005C177.839 63.2771 177.081 59.4055 177.081 53.9858C177.081 52.2538 177.173 50.4821 177.357 48.6755C177.578 46.8689 178.003 45.2462 178.629 43.8075C179.292 42.3314 180.232 41.1336 181.449 40.2117C182.704 39.2898 184.362 38.8301 186.427 38.8301C187.495 38.8301 188.601 39.1258 189.744 39.7147C190.887 40.3037 191.827 41.3747 192.565 42.9228H192.674V39.6054H199.975L199.98 39.6029Z" fill="white"/>
<path d="M205.886 73.2315C206.55 73.3408 207.213 73.398 207.877 73.398C209.278 73.398 210.275 73.0302 210.864 72.2922C211.49 71.5542 211.86 70.5776 211.97 69.3599L203.618 39.6025H211.582L216.008 60.178H216.12L219.991 39.6025H227.625L220.433 67.3695C219.77 69.8395 219.124 71.83 218.498 73.3433C217.909 74.8915 217.188 76.0718 216.341 76.8844C215.531 77.7318 214.534 78.2859 213.354 78.5443C212.211 78.8028 210.754 78.932 208.985 78.932H205.889V73.234L205.886 73.2315Z" fill="white"/>
<path d="M113.18 117.117L100.564 82.4863H107.688L117.285 110.291L126.932 82.4863H134.006L121.39 117.117H113.177H113.18Z" fill="white"/>
<path d="M143.111 92.1826H136.432V117.117H143.111V92.1826Z" fill="white"/>
<path d="M158.707 117.71C156.431 117.71 154.395 117.149 152.596 116.028C150.797 114.907 149.388 113.357 148.367 111.379C147.343 109.401 146.834 107.174 146.834 104.699C146.834 102.224 147.346 99.9081 148.367 97.945C149.388 95.9844 150.825 94.4338 152.671 93.2957C154.517 92.1576 156.58 91.5885 158.856 91.5885C160.67 91.5885 162.245 91.919 163.58 92.5775C164.917 93.2385 165.995 94.1778 166.82 95.3979V81.4971H173.5V117.116H167.563L166.82 113.652C166.293 114.41 165.657 115.096 164.917 115.705C164.174 116.316 163.302 116.801 162.295 117.164C161.289 117.527 160.093 117.708 158.709 117.708L158.707 117.71ZM160.29 111.873C161.642 111.873 162.812 111.568 163.804 110.959C164.793 110.35 165.568 109.5 166.129 108.412C166.691 107.323 166.969 106.053 166.969 104.602C166.969 103.151 166.689 101.931 166.129 100.842C165.568 99.7541 164.785 98.9142 163.779 98.3203C162.772 97.7263 161.594 97.4306 160.243 97.4306C158.988 97.4306 157.86 97.7363 156.853 98.3451C155.847 98.9564 155.064 99.8038 154.502 100.892C153.941 101.981 153.662 103.218 153.662 104.602C153.662 105.986 153.943 107.316 154.502 108.387C155.064 109.46 155.847 110.308 156.853 110.934C157.86 111.56 159.005 111.873 160.292 111.873H160.29Z" fill="white"/>
<path d="M181.663 128.001L187.699 114.346H186.215L176.271 92.1826H183.494L190.619 108.211L197 92.1826H204.124L188.738 128.001H181.663Z" fill="white"/>
<path d="M213.274 117.711C211.229 117.711 209.529 117.373 208.177 116.697C206.825 116.021 205.809 115.114 205.136 113.976C204.46 112.838 204.122 111.575 204.122 110.191C204.122 108.641 204.509 107.289 205.285 106.136C206.06 104.983 207.238 104.083 208.823 103.44C210.406 102.796 212.417 102.475 214.859 102.475H220.945C220.945 101.223 220.788 100.199 220.475 99.409C220.162 98.6162 219.65 98.0248 218.942 97.6272C218.231 97.2321 217.302 97.0333 216.147 97.0333C214.892 97.0333 213.828 97.2967 212.956 97.826C212.081 98.3553 211.547 99.1952 211.348 100.348H204.867C205.031 98.5342 205.618 96.9836 206.624 95.6989C207.631 94.4117 208.965 93.4078 210.632 92.6822C212.297 91.9566 214.154 91.5938 216.199 91.5938C218.54 91.5938 220.577 91.9814 222.309 92.7567C224.041 93.532 225.358 94.6701 226.268 96.171C227.175 97.672 227.627 99.4934 227.627 101.638V117.122H222.036L221.293 113.312C220.93 113.973 220.493 114.567 219.981 115.094C219.469 115.623 218.875 116.083 218.199 116.478C217.523 116.873 216.79 117.179 215.997 117.393C215.205 117.606 214.298 117.713 213.276 117.713L213.274 117.711ZM214.907 112.564C215.732 112.564 216.482 112.408 217.158 112.095C217.834 111.782 218.42 111.344 218.915 110.783C219.409 110.221 219.804 109.595 220.103 108.904C220.398 108.211 220.597 107.453 220.697 106.628V106.578H215.6C214.544 106.578 213.696 106.702 213.053 106.948C212.409 107.197 211.94 107.55 211.644 108.012C211.348 108.474 211.199 109.001 211.199 109.595C211.199 110.221 211.348 110.758 211.644 111.203C211.94 111.647 212.377 111.985 212.956 112.216C213.532 112.448 214.183 112.562 214.909 112.562L214.907 112.564Z" fill="white"/>
<path d="M141.556 81.3555H137.987C137.128 81.3555 136.432 82.0519 136.432 82.911V87.4411C136.432 88.3003 137.128 88.9967 137.987 88.9967H141.556C142.415 88.9967 143.111 88.3003 143.111 87.4411V82.911C143.111 82.0519 142.415 81.3555 141.556 81.3555Z" fill="#FAA51A"/>
</svg>
